<?xml version="1.0" standalone="no"?>
<!DOCTYPE svg PUBLIC "-//W3C//DTD SVG 20010904//EN"
 "http://www.w3.org/TR/2001/REC-SVG-20010904/DTD/svg10.dtd">
<svg version="1.0" xmlns="http://www.w3.org/2000/svg"
 width="392.000000pt" height="368.000000pt" viewBox="0 0 392.000000 368.000000"
 preserveAspectRatio="xMidYMid meet">

<g transform="translate(0.000000,368.000000) scale(0.100000,-0.100000)"
fill="#000000" stroke="none">
<path d="M1880 3659 c-78 -15 -187 -76 -255 -143 -90 -88 -155 -226 -155 -330
l0 -38 -41 37 c-73 66 -211 115 -323 115 -167 0 -327 -82 -423 -218 -139 -194
-133 -448 14 -629 l34 -43 -33 0 c-53 0 -146 -28 -212 -63 -129 -68 -240 -219
-265 -361 -15 -83 -15 -1676 0 -1746 12 -59 49 -107 96 -126 27 -12 310 -14
1675 -14 1580 0 1645 1 1684 19 25 12 50 33 65 57 l24 39 3 850 c3 900 2 930
-44 1033 -77 174 -270 311 -437 312 l-39 0 37 43 c72 84 115 207 115 330 0
233 -172 448 -402 502 -155 36 -322 -2 -445 -102 l-43 -34 0 38 c0 105 -59
231 -150 324 -127 129 -301 183 -480 148z m237 -265 c158 -76 201 -273 93
-424 -19 -27 -20 -43 -20 -317 l1 -288 204 209 c142 144 205 215 205 230 0 94
96 213 195 242 228 66 428 -148 345 -369 -35 -93 -122 -164 -216 -175 -39 -4
-55 -18 -245 -208 l-204 -204 291 0 c259 0 293 2 305 17 26 31 111 63 170 63
144 0 259 -98 285 -242 l6 -38 -1541 0 -1542 0 7 38 c17 99 68 167 156 211 84
42 158 43 244 2 34 -16 65 -34 68 -40 5 -8 96 -11 294 -11 l287 0 -205 205
c-175 176 -209 205 -235 205 -49 0 -127 43 -173 95 -151 172 -41 442 188 462
76 7 145 -16 206 -70 51 -45 94 -123 94 -172 0 -26 29 -60 205 -235 l205 -205
0 291 c0 253 -2 293 -16 305 -28 23 -56 91 -61 148 -20 222 202 373 404 275z
m-971 -1645 c185 -34 345 -201 361 -378 l6 -62 -123 3 -123 3 -12 40 c-17 59
-42 93 -89 119 -54 32 -94 39 -145 27 -150 -33 -212 -206 -115 -320 49 -57 78
-70 186 -81 248 -25 418 -208 418 -450 0 -231 -161 -418 -385 -448 -144 -19
-277 25 -381 126 -68 66 -120 169 -130 255 l-7 57 125 0 124 0 12 -44 c47
-177 296 -198 373 -31 35 75 16 179 -42 232 -34 31 -91 53 -138 53 -105 0
-221 45 -299 115 -203 183 -203 497 0 680 107 96 236 131 384 104z m653 -41
c98 -479 179 -860 184 -865 4 -3 9 -4 12 -2 2 3 45 203 95 444 50 242 93 448
96 458 5 15 20 17 130 17 124 0 124 0 119 -22 -4 -19 -292 -1411 -312 -1510
l-5 -28 -129 0 c-125 0 -129 1 -134 23 -12 50 -315 1520 -315 1528 0 5 56 9
124 9 l125 0 10 -52z m1213 41 c168 -36 311 -179 347 -347 21 -98 28 -92 -113
-92 l-124 0 -11 45 c-13 50 -58 108 -105 132 -19 10 -55 17 -92 17 -69 0 -118
-24 -158 -77 -44 -57 -47 -99 -44 -477 3 -397 1 -385 77 -453 95 -86 246 -54
305 64 24 48 26 64 26 171 l0 118 -95 0 -95 0 0 125 0 125 220 0 220 0 0 -244
c0 -263 -7 -323 -46 -403 -76 -157 -232 -254 -408 -254 -99 0 -164 19 -242 69
-110 72 -186 188 -204 314 -16 107 -12 742 5 821 51 242 293 398 537 346z"/>
</g>
</svg>
